<svg width="152" height="56" viewBox="0 0 152 56" fill="none" xmlns="http://www.w3.org/2000/svg">
<path d="M43.8105 28.6465H39.1006L39.0752 26.3232H43.1885C43.8825 26.3232 44.4707 26.2217 44.9531 26.0186C45.444 25.807 45.8164 25.5065 46.0703 25.1172C46.3242 24.7194 46.4512 24.2412 46.4512 23.6826C46.4512 23.0648 46.3327 22.5612 46.0957 22.1719C45.8587 21.7826 45.4948 21.499 45.0039 21.3213C44.5215 21.1436 43.9036 21.0547 43.1504 21.0547H40.0654V37H36.8789V18.5156H43.1504C44.166 18.5156 45.0716 18.613 45.8672 18.8076C46.6712 19.0023 47.3525 19.307 47.9111 19.7217C48.4782 20.1279 48.9056 20.6442 49.1934 21.2705C49.4896 21.8968 49.6377 22.6416 49.6377 23.5049C49.6377 24.2666 49.4557 24.9648 49.0918 25.5996C48.7279 26.2259 48.1904 26.738 47.4795 27.1357C46.7686 27.5335 45.8841 27.7705 44.8262 27.8467L43.8105 28.6465ZM43.6709 37H38.0977L39.5322 34.4736H43.6709C44.3903 34.4736 44.9912 34.3551 45.4736 34.1182C45.9561 33.8727 46.3158 33.5384 46.5527 33.1152C46.7982 32.6836 46.9209 32.18 46.9209 31.6045C46.9209 31.0036 46.8151 30.4831 46.6035 30.043C46.3919 29.5944 46.0576 29.2516 45.6006 29.0146C45.1436 28.7692 44.5469 28.6465 43.8105 28.6465H40.2305L40.2559 26.3232H44.915L45.6387 27.1992C46.6543 27.2331 47.488 27.4574 48.1396 27.8721C48.7998 28.2868 49.2907 28.8242 49.6123 29.4844C49.9339 30.1445 50.0947 30.8555 50.0947 31.6172C50.0947 32.7936 49.8366 33.7796 49.3203 34.5752C48.8125 35.3708 48.0804 35.9759 47.124 36.3906C46.1676 36.7969 45.0166 37 43.6709 37ZM66.9539 27.25V28.2656C66.9539 29.6621 66.7719 30.9147 66.408 32.0234C66.0441 33.1322 65.5236 34.0758 64.8465 34.8545C64.1779 35.6331 63.3738 36.2298 62.4344 36.6445C61.4949 37.0508 60.4539 37.2539 59.3113 37.2539C58.1772 37.2539 57.1404 37.0508 56.201 36.6445C55.27 36.2298 54.4617 35.6331 53.7762 34.8545C53.0906 34.0758 52.5574 33.1322 52.1766 32.0234C51.8042 30.9147 51.618 29.6621 51.618 28.2656V27.25C51.618 25.8535 51.8042 24.6051 52.1766 23.5049C52.549 22.3962 53.0737 21.4525 53.7508 20.6738C54.4363 19.8867 55.2446 19.29 56.1756 18.8838C57.115 18.4691 58.1518 18.2617 59.2859 18.2617C60.4285 18.2617 61.4695 18.4691 62.409 18.8838C63.3484 19.29 64.1567 19.8867 64.8338 20.6738C65.5109 21.4525 66.0314 22.3962 66.3953 23.5049C66.7677 24.6051 66.9539 25.8535 66.9539 27.25ZM63.7674 28.2656V27.2246C63.7674 26.1921 63.6658 25.2822 63.4627 24.4951C63.268 23.6995 62.976 23.0352 62.5867 22.502C62.2059 21.9603 61.7361 21.554 61.1775 21.2832C60.6189 21.0039 59.9884 20.8643 59.2859 20.8643C58.5835 20.8643 57.9572 21.0039 57.407 21.2832C56.8569 21.554 56.3872 21.9603 55.9978 22.502C55.617 23.0352 55.325 23.6995 55.1219 24.4951C54.9187 25.2822 54.8172 26.1921 54.8172 27.2246V28.2656C54.8172 29.2982 54.9187 30.2122 55.1219 31.0078C55.325 31.8034 55.6212 32.4762 56.0105 33.0264C56.4083 33.568 56.8823 33.9785 57.4324 34.2578C57.9825 34.5286 58.6088 34.6641 59.3113 34.6641C60.0223 34.6641 60.6528 34.5286 61.2029 34.2578C61.7531 33.9785 62.2185 33.568 62.5994 33.0264C62.9803 32.4762 63.268 31.8034 63.4627 31.0078C63.6658 30.2122 63.7674 29.2982 63.7674 28.2656ZM75.9674 20.9785L70.4449 37H67.106L74.0631 18.5156H76.1959L75.9674 20.9785ZM80.5885 37L75.0533 20.9785L74.8121 18.5156H76.9576L83.94 37H80.5885ZM80.3219 30.1445V32.6709H70.2672V30.1445H80.3219ZM94.642 32.2393C94.642 31.8584 94.5827 31.5199 94.4642 31.2236C94.3542 30.9274 94.1553 30.6566 93.8676 30.4111C93.5798 30.1657 93.1735 29.9287 92.6488 29.7002C92.1325 29.4632 91.4724 29.222 90.6683 28.9766C89.7881 28.7057 88.9756 28.4053 88.2308 28.0752C87.4945 27.7367 86.8513 27.3473 86.3011 26.9072C85.751 26.4587 85.3236 25.9466 85.0189 25.3711C84.7142 24.7871 84.5619 24.1143 84.5619 23.3525C84.5619 22.5993 84.7185 21.9137 85.0316 21.2959C85.3532 20.6781 85.806 20.1449 86.39 19.6963C86.9825 19.2393 87.6807 18.888 88.4847 18.6426C89.2888 18.3887 90.1774 18.2617 91.1508 18.2617C92.5219 18.2617 93.7025 18.5156 94.6927 19.0234C95.6914 19.5312 96.4574 20.2126 96.9906 21.0674C97.5323 21.9222 97.8031 22.8659 97.8031 23.8984H94.642C94.642 23.2891 94.5108 22.7516 94.2484 22.2861C93.9945 21.8122 93.6052 21.4398 93.0804 21.1689C92.5642 20.8981 91.9082 20.7627 91.1127 20.7627C90.3594 20.7627 89.7331 20.877 89.2338 21.1055C88.7344 21.334 88.362 21.6429 88.1166 22.0322C87.8711 22.4215 87.7484 22.8617 87.7484 23.3525C87.7484 23.6995 87.8288 24.0169 87.9896 24.3047C88.1504 24.584 88.3959 24.8464 88.726 25.0918C89.056 25.3288 89.4707 25.5531 89.9701 25.7646C90.4694 25.9762 91.0577 26.1794 91.7347 26.374C92.7588 26.6787 93.6517 27.0173 94.4135 27.3896C95.1752 27.7536 95.8099 28.1683 96.3177 28.6338C96.8256 29.0993 97.2064 29.6283 97.4603 30.2207C97.7142 30.8047 97.8412 31.4691 97.8412 32.2139C97.8412 32.9925 97.6846 33.695 97.3715 34.3213C97.0583 34.9391 96.6097 35.4681 96.0258 35.9082C95.4502 36.3398 94.7562 36.6742 93.9437 36.9111C93.1397 37.1396 92.2426 37.2539 91.2523 37.2539C90.3636 37.2539 89.4877 37.1354 88.6244 36.8984C87.7696 36.6615 86.9909 36.3018 86.2885 35.8193C85.586 35.3285 85.0274 34.7191 84.6127 33.9912C84.198 33.2549 83.9906 32.3958 83.9906 31.4141H87.1771C87.1771 32.015 87.2787 32.527 87.4818 32.9502C87.6934 33.3734 87.9854 33.7204 88.3578 33.9912C88.7302 34.2536 89.1618 34.4482 89.6527 34.5752C90.1521 34.7021 90.6853 34.7656 91.2523 34.7656C91.9971 34.7656 92.6192 34.6598 93.1185 34.4482C93.6263 34.2367 94.0072 33.9404 94.2611 33.5596C94.515 33.1787 94.642 32.7386 94.642 32.2393ZM104.201 32.8486L107.883 18.5156H109.813L109.597 22.21L105.661 37H103.655L104.201 32.8486ZM101.446 18.5156L104.43 32.7344L104.696 37H102.564L98.2853 18.5156H101.446ZM113.989 32.6963L116.935 18.5156H120.109L115.83 37H113.697L113.989 32.6963ZM110.562 18.5156L114.205 32.8867L114.738 37H112.733L108.861 22.21L108.657 18.5156H110.562ZM128.018 20.9785L122.495 37H119.156L126.113 18.5156H128.246L128.018 20.9785ZM132.639 37L127.103 20.9785L126.862 18.5156H129.008L135.99 37H132.639ZM132.372 30.1445V32.6709H122.317V30.1445H132.372ZM143.988 30.1064H139.177V27.5801H143.988C144.826 27.5801 145.503 27.4447 146.019 27.1738C146.536 26.903 146.912 26.5306 147.149 26.0566C147.395 25.5742 147.517 25.0241 147.517 24.4062C147.517 23.8223 147.395 23.2764 147.149 22.7686C146.912 22.2523 146.536 21.8376 146.019 21.5244C145.503 21.2113 144.826 21.0547 143.988 21.0547H140.154V37H136.968V18.5156H143.988C145.418 18.5156 146.633 18.7695 147.632 19.2773C148.639 19.7767 149.405 20.4707 149.929 21.3594C150.454 22.2396 150.717 23.2467 150.717 24.3809C150.717 25.5742 150.454 26.5983 149.929 27.4531C149.405 28.3079 148.639 28.9639 147.632 29.4209C146.633 29.8779 145.418 30.1064 143.988 30.1064Z" fill="white"/>
<circle cx="14" cy="27" r="14" fill="white"/>
<path d="M22.9087 26.0094C22.9087 24.9594 22.4892 23.9523 21.7425 23.2098C20.9957 22.4673 19.9829 22.0502 18.9269 22.0502H16.2295C15.999 20.9322 15.3875 19.9277 14.4982 19.2063C13.6089 18.4849 12.4964 18.0909 11.3487 18.0909H6.65824C6.58001 18.0909 6.50499 18.1218 6.44968 18.1768C6.39436 18.2318 6.36328 18.3064 6.36328 18.3842V19.7772C6.36328 19.855 6.39436 19.9296 6.44968 19.9846C6.50499 20.0396 6.58001 20.0705 6.65824 20.0705H11.2544C11.8722 20.0704 12.4749 20.2608 12.9794 20.6153C13.484 20.9698 13.8657 21.4711 14.0719 22.0502H6.65824C6.58001 22.0502 6.50499 22.081 6.44968 22.136C6.39436 22.1911 6.36328 22.2656 6.36328 22.3434V31.6587C6.36328 31.7365 6.39436 31.8111 6.44968 31.8661C6.50499 31.9211 6.58001 31.952 6.65824 31.952H13.3353C14.1278 31.9518 14.8877 31.6386 15.4481 31.0814C16.0084 30.5241 16.3231 29.7683 16.3231 28.9803C16.3231 28.4799 16.1958 27.9875 15.953 27.5491C15.7102 27.1107 15.3599 26.7405 14.9346 26.4728C15.5899 25.7976 16.0381 24.9507 16.2265 24.0313H18.9239C19.4519 24.0313 19.9583 24.2398 20.3317 24.6111C20.7051 24.9823 20.9148 25.4859 20.9148 26.0109C20.9148 26.5359 20.7051 27.0394 20.3317 27.4107C19.9583 27.782 19.4519 27.9905 18.9239 27.9905H18.6142C18.536 27.9905 18.4609 28.0214 18.4056 28.0764C18.3503 28.1314 18.3192 28.206 18.3192 28.2838V29.6769C18.3192 29.7547 18.3503 29.8293 18.4056 29.8843C18.4609 29.9393 18.536 29.9702 18.6142 29.9702H18.9239C19.4519 29.9702 19.9583 30.1787 20.3317 30.55C20.7051 30.9212 20.9148 31.4248 20.9148 31.9498C20.9148 32.4748 20.7051 32.9783 20.3317 33.3496C19.9583 33.7209 19.4519 33.9294 18.9239 33.9294H12.6377C12.5595 33.9294 12.4844 33.9603 12.4291 34.0153C12.3738 34.0703 12.3427 34.1449 12.3427 34.2227V35.6158C12.3427 35.6936 12.3738 35.7682 12.4291 35.8232C12.4844 35.8782 12.5595 35.9091 12.6377 35.9091H18.9239C19.98 35.9091 20.9928 35.4919 21.7395 34.7494C22.4863 34.0069 22.9058 32.9999 22.9058 31.9498C22.9063 31.3875 22.7861 30.8315 22.5533 30.319C22.3205 29.8066 21.9804 29.3494 21.5556 28.9781C21.9805 28.6074 22.321 28.1509 22.5543 27.6389C22.7877 27.127 22.9085 26.5715 22.9087 26.0094ZM10.3489 27.6958C10.3489 27.7736 10.3799 27.8482 10.4352 27.9032C10.4906 27.9582 10.5656 27.9891 10.6438 27.9891H13.3684C13.6317 27.9891 13.8841 28.093 14.0703 28.2781C14.2564 28.4632 14.361 28.7142 14.361 28.9759V28.9833C14.3612 29.113 14.3356 29.2414 14.2858 29.3613C14.236 29.4811 14.1629 29.5901 14.0707 29.6818C13.9785 29.7735 13.8691 29.8463 13.7485 29.8959C13.628 29.9455 13.4989 29.971 13.3684 29.9709H8.64918C8.57095 29.9709 8.49593 29.94 8.44062 29.885C8.3853 29.83 8.35422 29.7554 8.35422 29.6776V24.3216C8.35422 24.2438 8.3853 24.1692 8.44062 24.1142C8.49593 24.0592 8.57095 24.0283 8.64918 24.0283H14.0712C13.8647 24.6073 13.483 25.1084 12.9785 25.4629C12.474 25.8174 11.8714 26.0078 11.2536 26.008H10.6409C10.5626 26.008 10.4876 26.0389 10.4323 26.0939C10.377 26.1489 10.3459 26.2234 10.3459 26.3012L10.3489 27.6958Z" fill="#5F20C6"/>
</svg>
