<svg width="18" height="18" viewBox="0 0 18 18" fill="none" xmlns="http://www.w3.org/2000/svg">
<path d="M17.0555 9C17.0555 4.308 13.1988 0.5 8.44666 0.5C5.26138 0.499999 2.48932 2.2085 0.999986 4.7415L2.48932 5.5915C3.68596 3.5685 5.89844 2.2 8.44666 2.2C12.2518 2.2 15.3338 5.243 15.3338 9C15.3338 12.757 12.2518 15.8 8.44666 15.8C5.89844 15.8 3.68596 14.4315 2.48932 12.4L0.999986 13.25C2.48932 15.7915 5.26138 17.5 8.44666 17.5C13.1988 17.5 17.0555 13.692 17.0555 9Z" fill="white"/>
<path d="M0.999986 4.7415L0.56897 4.48807L0.31225 4.92469L0.752147 5.17575L0.999986 4.7415ZM2.48932 5.5915L2.24148 6.02575L2.66904 6.26977L2.91967 5.84606L2.48932 5.5915ZM2.48932 12.4L2.92014 12.1462L2.66982 11.7213L2.24148 11.9657L2.48932 12.4ZM0.999986 13.25L0.752147 12.8157L0.312892 13.0664L0.568599 13.5028L0.999986 13.25ZM17.5555 9C17.5555 4.02588 13.4689 -1.56778e-07 8.44666 -3.76306e-07L8.44666 1C12.9286 1 16.5555 4.59012 16.5555 9L17.5555 9ZM8.44666 -3.76306e-07C5.07833 -5.2354e-07 2.14513 1.8074 0.56897 4.48807L1.431 4.99493C2.83351 2.6096 5.44443 0.999999 8.44666 1L8.44666 -3.76306e-07ZM0.752147 5.17575L2.24148 6.02575L2.73716 5.15725L1.24783 4.30725L0.752147 5.17575ZM2.91967 5.84606C4.02996 3.96904 6.08221 2.7 8.44666 2.7L8.44666 1.7C5.71466 1.7 3.34196 3.16796 2.05897 5.33694L2.91967 5.84606ZM8.44666 2.7C11.9817 2.7 14.8338 5.52512 14.8338 9L15.8338 9C15.8338 4.96088 12.5219 1.7 8.44666 1.7L8.44666 2.7ZM14.8338 9C14.8338 12.4749 11.9817 15.3 8.44666 15.3L8.44666 16.3C12.5219 16.3 15.8338 13.0391 15.8338 9L14.8338 9ZM8.44666 15.3C6.08244 15.3 4.03047 14.0312 2.92014 12.1462L2.05851 12.6538C3.34144 14.8318 5.71444 16.3 8.44666 16.3L8.44666 15.3ZM2.24148 11.9657L0.752147 12.8157L1.24783 13.6843L2.73716 12.8343L2.24148 11.9657ZM0.568599 13.5028C2.14472 16.1924 5.07815 18 8.44666 18L8.44666 17C5.44461 17 2.83392 15.3906 1.43137 12.9972L0.568599 13.5028ZM8.44666 18C13.4689 18 17.5555 13.9741 17.5555 9L16.5555 9C16.5555 13.4099 12.9286 17 8.44666 17L8.44666 18Z" fill="white"/>
</svg>
