<svg width="20" height="20" viewBox="0 0 20 20" fill="none" xmlns="http://www.w3.org/2000/svg">
<path d="M2.5 2.5L17.5 17.5" stroke="white" stroke-width="1.25" stroke-linecap="round" stroke-linejoin="round"/>
<path d="M12.3567 7.64331C12.9819 8.26829 13.3332 9.11599 13.3334 9.99998" stroke="white" stroke-width="1.25" stroke-linecap="round" stroke-linejoin="round"/>
<path d="M14.7142 5.28589C15.6724 6.24362 16.316 7.47056 16.5595 8.80329C16.8029 10.136 16.6345 11.5113 16.0767 12.7459" stroke="white" stroke-width="1.25" stroke-linecap="round" stroke-linejoin="round"/>
<path d="M7.64002 12.3566C7.01511 11.7316 6.66406 10.8839 6.66406 9.99998C6.66406 9.1161 7.01511 8.2684 7.64002 7.64331" stroke="white" stroke-width="1.25" stroke-linecap="round" stroke-linejoin="round"/>
<path d="M5.28081 14.7142C4.66171 14.0952 4.17062 13.3602 3.83557 12.5514C3.50051 11.7425 3.32806 10.8756 3.32806 10.0001C3.32806 9.12455 3.50051 8.25761 3.83557 7.44875C4.17062 6.63989 4.66171 5.90495 5.28081 5.28589" stroke="white" stroke-width="1.25" stroke-linecap="round" stroke-linejoin="round"/>
</svg>
