<svg width="18" height="10" viewBox="0 0 18 10" fill="none" xmlns="http://www.w3.org/2000/svg">
<path d="M4.438 8.476C4.03667 8.476 3.63067 8.406 3.22 8.266C2.81867 8.14467 2.618 7.97667 2.618 7.762C2.618 7.74333 2.62733 7.734 2.646 7.734L2.73 7.762C2.94467 7.902 3.21533 7.972 3.542 7.972C4.33533 7.972 5.03533 7.78067 5.642 7.398C6.23933 7.02467 6.538 6.66067 6.538 6.306C6.538 5.942 6.3 5.64333 5.824 5.41C5.56267 5.27933 5.30133 5.186 5.04 5.13C4.788 5.074 4.55 5.046 4.326 5.046C3.95267 5.046 3.64933 5.09733 3.416 5.2C3.32267 5.19067 3.276 5.13 3.276 5.018C3.276 4.88733 3.374 4.794 3.57 4.738L4.018 4.668C5.054 4.388 5.86133 4.02867 6.44 3.59C7.01867 3.142 7.308 2.64267 7.308 2.092C7.308 1.82133 7.154 1.602 6.846 1.434C6.538 1.266 6.07133 1.182 5.446 1.182C4.83 1.182 4.312 1.238 3.892 1.35C3.68667 1.39667 3.416 1.476 3.08 1.588C2.75333 1.69067 2.34267 1.826 1.848 1.994C0.905333 2.31133 0.415333 2.47 0.378 2.47C0.219333 2.47 0.14 2.358 0.14 2.134C0.14 2.03133 0.172667 1.966 0.238 1.938C1.99267 1.238 3.682 0.888 5.306 0.888C7.182 0.888 8.12 1.34533 8.12 2.26C8.12 2.74533 7.78867 3.23533 7.126 3.73C6.79933 3.97267 6.43067 4.18267 6.02 4.36C5.61867 4.53733 5.17533 4.68667 4.69 4.808C5.40867 4.864 5.98267 5.046 6.412 5.354C6.84133 5.65267 7.056 6.06333 7.056 6.586C7.056 7.09 6.79467 7.53333 6.272 7.916C5.75867 8.28933 5.14733 8.476 4.438 8.476ZM1.428 9.358C1.26933 9.358 1.12933 9.232 1.008 8.98C0.896 8.728 0.84 8.434 0.84 8.098C0.84 6.87533 1.51667 5.12533 2.87 2.848C3.262 2.11067 3.52333 1.742 3.654 1.742C3.78467 1.742 3.92467 1.77467 4.074 1.84C4.22333 1.896 4.298 1.952 4.298 2.008C4.298 2.01733 4.29333 2.03133 4.284 2.05C2.268 4.97133 1.26 7.132 1.26 8.532C1.26 8.70933 1.29733 8.882 1.372 9.05C1.44667 9.218 1.49333 9.302 1.512 9.302C1.49333 9.33933 1.46533 9.358 1.428 9.358ZM8.54383 8.154C7.75049 8.154 7.35383 7.78533 7.35383 7.048C7.35383 6.47867 7.63383 5.788 8.19383 4.976C8.77249 4.164 9.32316 3.758 9.84583 3.758C10.0698 3.758 10.2658 3.83267 10.4338 3.982C10.6112 4.122 10.6998 4.29467 10.6998 4.5C10.6998 4.84533 10.4805 5.19533 10.0418 5.55C9.61249 5.89533 9.18783 6.068 8.76783 6.068C8.68383 6.068 8.64183 6.04933 8.64183 6.012L8.68383 5.942C9.75716 5.606 10.2938 5.05533 10.2938 4.29C10.2938 4.178 10.2565 4.122 10.1818 4.122C10.0792 4.122 9.89249 4.22933 9.62183 4.444C9.38849 4.63067 9.16916 4.84533 8.96383 5.088C8.76783 5.33067 8.59049 5.58267 8.43183 5.844C8.09583 6.41333 7.92783 6.88933 7.92783 7.272C7.92783 7.64533 8.07249 7.832 8.36183 7.832C8.69783 7.832 9.06649 7.65933 9.46783 7.314C9.59849 7.19267 9.73849 7.05733 9.88783 6.908C10.0372 6.74933 10.2005 6.57667 10.3778 6.39C10.7232 6.01667 10.9052 5.83 10.9238 5.83C10.9798 5.83 11.0078 5.85333 11.0078 5.9C11.0078 5.93733 10.9985 5.97467 10.9798 6.012C9.99983 7.44 9.18783 8.154 8.54383 8.154ZM11.3774 8.266C10.9667 8.266 10.7614 8.04667 10.7614 7.608C10.7614 7.216 10.8921 6.70267 11.1534 6.068C11.2561 5.82533 11.3587 5.58267 11.4614 5.34C11.5641 5.09733 11.6807 4.822 11.8114 4.514C11.4941 4.39267 11.3354 4.21067 11.3354 3.968C11.3354 3.89333 11.3541 3.842 11.3914 3.814C11.5314 3.87933 11.7461 3.926 12.0354 3.954C12.3434 3.26333 12.4974 2.82467 12.4974 2.638C12.4974 2.43267 12.4601 2.33 12.3854 2.33L12.1054 2.4C12.0774 2.4 12.0634 2.386 12.0634 2.358C12.0634 2.28333 12.1194 2.22733 12.2314 2.19C12.3434 2.14333 12.4274 2.12 12.4834 2.12C12.8941 2.12 13.0994 2.35333 13.0994 2.82C13.0994 3.09067 13.0154 3.44533 12.8474 3.884C12.8847 3.92133 13.0527 3.94 13.3514 3.94C13.6594 3.94 13.8927 3.90733 14.0514 3.842C14.2007 3.76733 14.3081 3.73 14.3734 3.73C14.4014 3.73 14.4154 3.73933 14.4154 3.758C14.4154 3.786 14.3921 3.82333 14.3454 3.87C14.1494 4.038 13.9161 4.18267 13.6454 4.304C13.3841 4.42533 13.0807 4.50933 12.7354 4.556H12.6934C12.6841 4.556 12.6701 4.56067 12.6514 4.57C12.6327 4.57 12.5954 4.57933 12.5394 4.598C11.6901 6.28733 11.2654 7.36067 11.2654 7.818C11.2654 7.96733 11.3214 8.042 11.4334 8.042L11.8254 7.958L11.8394 7.972C11.8394 8.168 11.6854 8.266 11.3774 8.266ZM13.7596 8.112C13.5729 8.112 13.4003 8.028 13.2416 7.86C13.0923 7.68267 13.0176 7.45867 13.0176 7.188C13.0176 6.91733 13.1809 6.49733 13.5076 5.928C13.8343 5.368 14.2356 4.864 14.7116 4.416C15.1783 3.97733 15.5796 3.758 15.9156 3.758H16.0556C16.4009 3.758 16.6949 3.828 16.9376 3.968C17.1803 4.09867 17.3016 4.276 17.3016 4.5C17.3016 4.60267 17.2596 4.654 17.1756 4.654C17.1476 4.654 17.1336 4.64 17.1336 4.612C16.9843 4.26667 16.7556 4.094 16.4476 4.094C15.9156 4.094 15.3089 4.53267 14.6276 5.41C13.9463 6.26867 13.6056 6.93133 13.6056 7.398C13.6056 7.57533 13.6523 7.664 13.7456 7.664C14.1656 7.664 15.0476 6.71667 16.3916 4.822C16.3823 4.83133 16.3869 4.83133 16.4056 4.822C16.4336 4.80333 16.4569 4.794 16.4756 4.794C16.5223 4.794 16.6203 4.84067 16.7696 4.934C16.9189 5.018 16.9936 5.09267 16.9936 5.158C16.9936 5.158 16.9749 5.19067 16.9376 5.256C16.9003 5.312 16.8536 5.40067 16.7976 5.522C16.6483 5.83933 16.5316 6.152 16.4476 6.46C16.3729 6.75867 16.3356 7.02 16.3356 7.244C16.3356 7.73867 16.4569 7.986 16.6996 7.986L16.8396 7.958L16.8676 7.972C16.8676 8.056 16.7509 8.098 16.5176 8.098C16.2936 8.098 16.1069 7.99533 15.9576 7.79C15.8176 7.57533 15.7476 7.29067 15.7476 6.936C15.7476 6.59067 15.8083 6.208 15.9296 5.788C15.9203 5.816 15.8876 5.86733 15.8316 5.942C15.7756 6.01667 15.6869 6.14733 15.5656 6.334C14.8003 7.51933 14.1983 8.112 13.7596 8.112Z" fill="#DF1954"/>
</svg>
