<svg width="25" height="27" viewBox="0 0 25 27" fill="none" xmlns="http://www.w3.org/2000/svg">
<path d="M25.0004 19.4935C25.0003 17.6313 24.2661 15.8455 22.9594 14.5288C21.6527 13.2121 19.8804 12.4723 18.0324 12.4721H3.53264C2.59588 12.4721 1.69747 12.0972 1.03504 11.4298C0.372598 10.7624 0.000377166 9.85714 0.000244141 8.91321L0.000244141 23.0023C0.000244141 24.6259 1.2588 26.5153 3.53264 26.5153H18.0324C21.7785 26.5153 25.0004 23.4618 25.0004 19.4935Z" fill="url(#paint0_linear_405_174)"/>
<path d="M22.0584 7.02182C22.0584 9.75483 20.6915 12.3291 18.2461 13.2839C17.9401 13.4027 2.57756 19.5698 2.57756 19.5698C1.14644 20.097 0.000244141 21.3384 0.000244141 22.9619V3.51293C0.000244141 2.58124 0.367544 1.68772 1.02134 1.02891C1.67514 0.370111 2.56188 0 3.48649 0L15.0899 0C16.9381 0 18.7105 0.739797 20.0174 2.05664C21.3242 3.37349 22.0584 5.15952 22.0584 7.02182Z" fill="url(#paint1_linear_405_174)"/>
<path style="mix-blend-mode:overlay" opacity="0.2" d="M18.2466 13.3243C17.9406 13.4451 2.57806 19.6117 2.57806 19.6117C1.19259 20.1212 0.0744836 21.2994 0.00375547 22.8467C0.00375547 22.8714 0.00375547 22.8972 0.00375547 22.9204C0.00350823 22.9221 0.00350823 22.9238 0.00375547 22.9255H0.000244141C0.000244141 22.9508 0.000244141 22.9761 0.000244141 23.0018C0.000244141 24.3292 0.841458 25.8324 2.39146 26.3378C2.76016 26.4565 3.1451 26.5158 3.53214 26.5137H15.7275C12.8447 26.5137 9.94784 25.0873 9.6283 22.8047C9.27717 20.2936 11.5465 19.0021 12.8918 18.0195C15.7511 15.93 18.0891 13.8465 19.0497 13.0069L19.0532 13.0044C19.2353 12.8452 19.3677 12.7314 19.4445 12.6708C19.0741 12.9387 18.6717 13.1583 18.2466 13.3243Z" fill="url(#paint2_linear_405_174)"/>
<path d="M17.74 0.566193C16.8992 0.218178 15.9989 0.0397515 15.0899 0.0410224H12.0687C15.3929 1.2339 15.0563 5.29172 13.2154 7.05324C13.0769 7.18617 9.92326 10.086 7.32186 12.4723C5.46788 14.1751 3.89381 15.6187 3.89381 15.6187C1.90288 17.4187 0.0318461 19.7013 0.000244141 22.9211C0.000244141 22.8963 0.000244141 22.8705 0.00275223 22.8473C0.0734804 21.2996 1.19159 20.1213 2.57706 19.6124C2.57706 19.6124 17.9396 13.4458 18.2456 13.3265C18.6706 13.1609 19.0731 12.9418 19.4435 12.6744C19.4614 12.6591 19.4805 12.6453 19.5007 12.633C21.152 11.4067 22.0554 9.28837 22.0554 7.06638C22.0563 5.67396 21.6465 4.31267 20.8782 3.15533C20.1098 1.998 19.0175 1.09682 17.74 0.566193Z" fill="url(#paint3_linear_405_174)"/>
<path style="mix-blend-mode:multiply" opacity="0.5" d="M19.4444 12.6724C19.3677 12.733 19.2352 12.8467 19.0531 13.006L19.0496 13.0085C18.8318 13.1715 18.6029 13.3188 18.3644 13.4493C18.0795 13.6044 3.8175 21.5694 3.8175 21.5694C2.48019 22.2705 1.52862 23.5544 1.76387 24.9853C1.85243 25.4841 2.06874 25.9508 2.3914 26.3394C0.841399 25.834 0.000185426 24.3302 0.000185426 23.0034C0.000185426 22.9781 0.000185426 22.9529 0.000185426 22.9271C-6.18088e-05 22.9254 -6.18088e-05 22.9237 0.000185426 22.922C0.000185426 22.8973 0.000185426 22.8715 0.00269352 22.8482C0.0734217 21.3005 1.19153 20.1223 2.577 19.6133C2.577 19.6133 17.9396 13.4467 18.2455 13.3274C18.671 13.161 19.0738 12.9409 19.4444 12.6724Z" fill="url(#paint4_linear_405_174)"/>
<path d="M22.0583 7.06231C22.0583 9.28632 21.1554 11.4027 19.5036 12.6289C19.4835 12.6412 19.4643 12.6551 19.4464 12.6704C19.076 12.9377 18.6735 13.1568 18.2485 13.3224C17.9405 13.4452 2.57797 19.6118 2.57797 19.6118C1.1925 20.1213 0.0743903 21.2995 0.00366211 22.8467C0.100474 20.0212 2.81874 18.0105 5.08355 16.6412C5.08355 16.6412 9.12509 14.3227 12.348 12.4722C14.4162 11.2839 16.1472 10.2881 16.2566 10.2214C18.4953 8.84556 19.3882 6.06554 18.9071 3.37701C18.728 2.36496 18.3294 1.4052 17.7399 0.566162C19.0174 1.09605 20.1099 1.99641 20.8787 3.15299C21.6476 4.30957 22.0581 5.67022 22.0583 7.06231Z" fill="url(#paint5_linear_405_174)"/>
<defs>
<linearGradient id="paint0_linear_405_174" x1="-1.41281" y1="22.1602" x2="21.1987" y2="13.2345" gradientUnits="userSpaceOnUse">
<stop stop-color="#6A42CC"/>
<stop offset="0.25" stop-color="#6F43D0"/>
<stop offset="0.54" stop-color="#7C45DB"/>
<stop offset="0.83" stop-color="#9249EE"/>
<stop offset="1" stop-color="#A24CFC"/>
</linearGradient>
<linearGradient id="paint1_linear_405_174" x1="20.9985" y1="3.67519" x2="0.509583" y2="11.7163" gradientUnits="userSpaceOnUse">
<stop stop-color="#9191E2"/>
<stop offset="0.52" stop-color="#7777F3"/>
<stop offset="1" stop-color="#6464FF"/>
</linearGradient>
<linearGradient id="paint2_linear_405_174" x1="1.65057" y1="26.2822" x2="18.8781" y2="18.9938" gradientUnits="userSpaceOnUse">
<stop stop-color="#303148" stop-opacity="0.4"/>
<stop offset="0.33" stop-color="#2B2C44" stop-opacity="0.73"/>
<stop offset="0.66" stop-color="#272841" stop-opacity="0.93"/>
<stop offset="1" stop-color="#262740"/>
</linearGradient>
<linearGradient id="paint3_linear_405_174" x1="1.91693" y1="20.0238" x2="18.9918" y2="3.47132" gradientUnits="userSpaceOnUse">
<stop stop-color="#6A7EEF" stop-opacity="0.8"/>
<stop offset="1" stop-color="#999EFF" stop-opacity="0.8"/>
</linearGradient>
<linearGradient id="paint4_linear_405_174" x1="0.000185426" y1="19.5062" x2="19.4444" y2="19.5062" gradientUnits="userSpaceOnUse">
<stop stop-color="#303148" stop-opacity="0.8"/>
<stop offset="0.21" stop-color="#2C2D45" stop-opacity="0.87"/>
<stop offset="1" stop-color="#262740"/>
</linearGradient>
<linearGradient id="paint5_linear_405_174" x1="12.8245" y1="18.2688" x2="6.9567" y2="5.18087" gradientUnits="userSpaceOnUse">
<stop stop-color="#403DD8" stop-opacity="0.6"/>
<stop offset="0.03" stop-color="#4947DB" stop-opacity="0.62"/>
<stop offset="0.15" stop-color="#696DE6" stop-opacity="0.67"/>
<stop offset="0.28" stop-color="#848DEF" stop-opacity="0.72"/>
<stop offset="0.41" stop-color="#99A5F6" stop-opacity="0.75"/>
<stop offset="0.56" stop-color="#A8B6FB" stop-opacity="0.78"/>
<stop offset="0.74" stop-color="#B0C0FE" stop-opacity="0.8"/>
<stop offset="1" stop-color="#B3C3FF" stop-opacity="0.8"/>
</linearGradient>
</defs>
</svg>
