<svg width="28" height="28" viewBox="0 0 28 28" fill="none" xmlns="http://www.w3.org/2000/svg">
<circle cx="14" cy="14" r="14" fill="#5F20C6"/>
<path d="M22.909 13.0095C22.909 11.9594 22.4895 10.9524 21.7427 10.2099C20.996 9.46735 19.9832 9.05021 18.9271 9.05021H16.2297C15.9993 7.9323 15.3877 6.92778 14.4984 6.20639C13.6091 5.48501 12.4967 5.091 11.349 5.09094H6.65848C6.58025 5.09094 6.50523 5.12184 6.44992 5.17684C6.39461 5.23184 6.36353 5.30644 6.36353 5.38422V6.7773C6.36353 6.85508 6.39461 6.92968 6.44992 6.98468C6.50523 7.03968 6.58025 7.07058 6.65848 7.07058H11.2546C11.8724 7.0705 12.4751 7.26081 12.9797 7.61533C13.4842 7.96984 13.8659 8.47113 14.0722 9.05021H6.65848C6.58025 9.05021 6.50523 9.08111 6.44992 9.13611C6.39461 9.19111 6.36353 9.26571 6.36353 9.34349V18.6588C6.36353 18.7366 6.39461 18.8111 6.44992 18.8662C6.50523 18.9212 6.58025 18.952 6.65848 18.952H13.3355C14.128 18.9519 14.888 18.6387 15.4483 18.0814C16.0086 17.5241 16.3234 16.7684 16.3234 15.9804C16.3233 15.4799 16.196 14.9876 15.9533 14.5492C15.7105 14.1108 15.3602 13.7405 14.9349 13.4729C15.5902 12.7977 16.0383 11.9507 16.2268 11.0313H18.9241C19.4522 11.0313 19.9586 11.2399 20.332 11.6111C20.7053 11.9824 20.9151 12.4859 20.9151 13.0109V13.0109C20.9151 13.536 20.7053 14.0395 20.332 14.4108C19.9586 14.782 19.4522 14.9906 18.9241 14.9906H18.6144C18.5362 14.9906 18.4612 15.0215 18.4059 15.0765C18.3506 15.1315 18.3195 15.2061 18.3195 15.2839V16.6769C18.3195 16.7547 18.3506 16.8293 18.4059 16.8843C18.4612 16.9393 18.5362 16.9702 18.6144 16.9702H18.9241C19.4522 16.9702 19.9586 17.1788 20.332 17.55C20.7053 17.9213 20.9151 18.4248 20.9151 18.9499V18.9499C20.9151 19.4749 20.7053 19.9784 20.332 20.3497C19.9586 20.7209 19.4522 20.9295 18.9241 20.9295H12.6379C12.5597 20.9295 12.4847 20.9604 12.4294 21.0154C12.3741 21.0704 12.343 21.145 12.343 21.2228V22.6158C12.343 22.6936 12.3741 22.7682 12.4294 22.8232C12.4847 22.8782 12.5597 22.9091 12.6379 22.9091H18.9241C19.9802 22.9091 20.993 22.492 21.7398 21.7495C22.4865 21.007 22.906 19.9999 22.906 18.9499V18.9499C22.9066 18.3875 22.7864 17.8316 22.5536 17.3191C22.3207 16.8067 21.9806 16.3495 21.5559 15.9782C21.9808 15.6075 22.3212 15.1509 22.5546 14.639C22.7879 14.1271 22.9087 13.5715 22.909 13.0095V13.0095ZM10.3491 14.6958C10.3491 14.7736 10.3802 14.8482 10.4355 14.9032C10.4908 14.9582 10.5658 14.9891 10.6441 14.9891H13.3687C13.6319 14.9891 13.8844 15.0931 14.0705 15.2782C14.2566 15.4632 14.3612 15.7143 14.3612 15.976V15.9833C14.3614 16.113 14.3359 16.2415 14.2861 16.3613C14.2363 16.4812 14.1632 16.5901 14.071 16.6819C13.9788 16.7736 13.8693 16.8463 13.7488 16.896C13.6283 16.9456 13.4991 16.971 13.3687 16.971H8.64942C8.57119 16.971 8.49617 16.9401 8.44086 16.8851C8.38555 16.8301 8.35447 16.7555 8.35447 16.6777V11.3217C8.35447 11.2439 8.38555 11.1693 8.44086 11.1143C8.49617 11.0593 8.57119 11.0284 8.64942 11.0284H14.0714C13.865 11.6073 13.4833 12.1085 12.9787 12.463C12.4742 12.8175 11.8716 13.0079 11.2539 13.008H10.6411C10.5629 13.008 10.4878 13.0389 10.4325 13.0939C10.3772 13.1489 10.3461 13.2235 10.3461 13.3013L10.3491 14.6958Z" fill="white"/>
</svg>
