<svg width="21" height="21" viewBox="0 0 21 21" fill="none" xmlns="http://www.w3.org/2000/svg">
<path d="M10.5 0C16.299 0 21 4.70101 21 10.5C21 16.299 16.299 21 10.5 21C8.50547 21 6.59102 20.4421 4.93595 19.4061C4.26176 18.9841 3.63732 18.4866 3.07494 17.9242C2.51172 17.3609 2.01368 16.7354 1.59134 16.06C0.556967 14.4058 0 12.4929 0 10.5C0 10.1801 0.0143267 9.86195 0.0428167 9.54602C0.086205 9.06465 0.511548 8.70975 0.992845 8.75303C1.47414 8.79643 1.82914 9.2218 1.78575 9.70317C1.76197 9.96683 1.75 10.2326 1.75 10.5C1.75 12.1624 2.21348 13.7542 3.07513 15.1321C3.42725 15.6952 3.84263 16.2169 4.31246 16.6868C4.78156 17.1559 5.30238 17.5709 5.86446 17.9227C7.24318 18.7858 8.83622 19.25 10.5 19.25C15.3324 19.25 19.25 15.3324 19.25 10.5C19.25 5.6675 15.3324 1.75 10.5 1.75C7.70316 1.75 5.13278 3.07161 3.49737 5.25229L6.71322 5.25244C7.19647 5.25244 7.58822 5.64419 7.58822 6.12744C7.58822 6.57042 7.25903 6.93651 6.83195 6.99446L6.71322 7.00244H1.45833C1.01535 7.00244 0.649262 6.67326 0.591325 6.24617L0.583333 6.12744V0.877438C0.583333 0.394193 0.975088 0.00243831 1.45833 0.00243831C1.90132 0.00243831 2.26741 0.331625 2.32534 0.758707L2.33333 0.877438L2.33217 3.90073C4.30018 1.46537 7.27566 0 10.5 0ZM9.625 4.66667C10.0677 4.66667 10.4341 4.99605 10.492 5.42298L10.5 5.54167V10.5H13.125C13.608 10.5 14 10.892 14 11.375C14 11.8177 13.6706 12.1841 13.2436 12.242L13.125 12.25H9.625C9.18225 12.25 8.81592 11.9206 8.75805 11.4936L8.75 11.375V5.54167C8.75 5.05867 9.142 4.66667 9.625 4.66667Z" fill="#8E76AB"/>
</svg>
