<svg width="101" height="101" viewBox="0 0 101 101" fill="none" xmlns="http://www.w3.org/2000/svg">
<path fill-rule="evenodd" clip-rule="evenodd" d="M80.4322 90.2191C58.2828 106.968 26.9316 102.751 10.4519 80.8047C-6.02786 58.8586 -1.42634 27.4535 20.7231 10.7041C35.5696 -0.522869 54.4909 -2.30211 70.3592 4.33601L67.9846 9.87302C62.575 7.49847 56.5994 6.18105 50.3172 6.18105C25.9468 6.18105 6.19067 26.0066 6.19067 50.4626C6.19067 74.9186 25.9468 94.7441 50.3172 94.7441C74.6876 94.7441 94.4437 74.9186 94.4437 50.4626C94.4437 48.5859 94.3274 46.7365 94.1015 44.9212L100.244 44.1333C102.198 61.2304 95.2787 78.9921 80.4322 90.2191Z" fill="#8637D5"/>
</svg>
