<svg width="101" height="101" viewBox="0 0 101 101" fill="none" xmlns="http://www.w3.org/2000/svg">
<path fill-rule="evenodd" clip-rule="evenodd" d="M80.4324 90.219C58.283 106.968 26.9318 102.751 10.4521 80.8047C-6.02761 58.8586 -1.4261 27.4535 20.7233 10.7041C35.5699 -0.522899 54.4912 -2.30214 70.3594 4.33598L67.9848 9.87299C62.5752 7.49844 56.5996 6.18102 50.3174 6.18102C25.947 6.18102 6.19092 26.0065 6.19092 50.4625C6.19092 74.9185 25.947 94.744 50.3174 94.744C74.6878 94.744 94.4439 74.9185 94.4439 50.4625C94.4439 48.5859 94.3276 46.7365 94.1018 44.9212L100.244 44.1332C102.199 61.2303 95.279 78.9921 80.4324 90.219Z" fill="#8637D5"/>
</svg>
