<svg width="20" height="20" viewBox="0 0 20 20" fill="none" xmlns="http://www.w3.org/2000/svg">
<path d="M3.33286 4.16671V13.3334C3.33286 13.5544 3.42066 13.7663 3.57694 13.9226C3.73322 14.0789 3.94518 14.1667 4.1662 14.1667H5.83286V17.5L9.1662 14.1667H13.8195C14.0412 14.1667 14.2529 14.0792 14.4087 13.9225L16.4212 11.9109C16.577 11.7542 16.6654 11.5425 16.6654 11.3209V4.16671C16.6654 3.94569 16.5776 3.73373 16.4213 3.57745C16.265 3.42117 16.053 3.33337 15.832 3.33337H4.16536C3.94435 3.33337 3.73239 3.42117 3.57611 3.57745C3.41983 3.73373 3.33203 3.94569 3.33203 4.16671H3.33286Z" stroke="#8E76AB" stroke-width="1.25" stroke-linecap="round" stroke-linejoin="round"/>
<path d="M13.333 6.66663V9.99996" stroke="#8E76AB" stroke-width="1.25" stroke-linecap="round" stroke-linejoin="round"/>
<path d="M10 6.66663V9.99996" stroke="#8E76AB" stroke-width="1.25" stroke-linecap="round" stroke-linejoin="round"/>
</svg>
