<svg width="20" height="20" viewBox="0 0 20 20" fill="none" xmlns="http://www.w3.org/2000/svg">
<path d="M10 17.5C14.1421 17.5 17.5 14.1421 17.5 10C17.5 5.85786 14.1421 2.5 10 2.5C5.85786 2.5 2.5 5.85786 2.5 10C2.5 14.1421 5.85786 17.5 10 17.5Z" stroke="#8E76AB" stroke-width="1.25" stroke-linecap="round" stroke-linejoin="round"/>
<path d="M3 7.5H17" stroke="#8E76AB" stroke-width="1.25" stroke-linecap="round" stroke-linejoin="round"/>
<path d="M3 12.5H17" stroke="#8E76AB" stroke-width="1.25" stroke-linecap="round" stroke-linejoin="round"/>
<path d="M9.58371 2.5C8.17983 4.74968 7.43555 7.34822 7.43555 10C7.43555 12.6518 8.17983 15.2503 9.58371 17.5" stroke="#8E76AB" stroke-width="1.25" stroke-linecap="round" stroke-linejoin="round"/>
<path d="M10.417 2.5C11.8209 4.74968 12.5652 7.34822 12.5652 10C12.5652 12.6518 11.8209 15.2503 10.417 17.5" stroke="#8E76AB" stroke-width="1.25" stroke-linecap="round" stroke-linejoin="round"/>
</svg>
