<svg width="20" height="20" viewBox="0 0 20 20" fill="none" xmlns="http://www.w3.org/2000/svg">
<path d="M2.5 17.5L3.875 14.3333C2.82305 12.84 2.35222 11.0142 2.55087 9.1984C2.74952 7.38262 3.60399 5.70176 4.95392 4.47124C6.30386 3.24073 8.05646 2.54515 9.88282 2.51506C11.7092 2.48496 13.4837 3.12241 14.8735 4.30778C16.2632 5.49316 17.1726 7.14496 17.431 8.9532C17.6893 10.7614 17.2789 12.6018 16.2768 14.1289C15.2746 15.6561 13.7495 16.765 11.9878 17.2476C10.2261 17.7301 8.34885 17.5532 6.70833 16.75L2.5 17.5" stroke="#8E76AB" stroke-width="1.25" stroke-linecap="round" stroke-linejoin="round"/>
<path d="M7.5 8.33337C7.5 8.44388 7.5439 8.54986 7.62204 8.628C7.70018 8.70614 7.80616 8.75004 7.91667 8.75004C8.02717 8.75004 8.13315 8.70614 8.21129 8.628C8.28943 8.54986 8.33333 8.44388 8.33333 8.33337V7.50004C8.33333 7.38953 8.28943 7.28355 8.21129 7.20541C8.13315 7.12727 8.02717 7.08337 7.91667 7.08337C7.80616 7.08337 7.70018 7.12727 7.62204 7.20541C7.5439 7.28355 7.5 7.38953 7.5 7.50004V8.33337ZM7.5 8.33337C7.5 9.43844 7.93899 10.4983 8.72039 11.2797C9.50179 12.0611 10.5616 12.5 11.6667 12.5H12.5C12.6105 12.5 12.7165 12.4561 12.7946 12.378C12.8728 12.2999 12.9167 12.1939 12.9167 12.0834C12.9167 11.9729 12.8728 11.8669 12.7946 11.7887C12.7165 11.7106 12.6105 11.6667 12.5 11.6667H11.6667C11.5562 11.6667 11.4502 11.7106 11.372 11.7887C11.2939 11.8669 11.25 11.9729 11.25 12.0834C11.25 12.1939 11.2939 12.2999 11.372 12.378C11.4502 12.4561 11.5562 12.5 11.6667 12.5" stroke="#8E76AB" stroke-width="1.25" stroke-linecap="round" stroke-linejoin="round"/>
</svg>
