<?xml version="1.0" encoding="utf-8"?>
<!-- Generator: Adobe Illustrator 26.3.1, SVG Export Plug-In . SVG Version: 6.00 Build 0)  -->
<svg version="1.1" id="레이어_1" xmlns="http://www.w3.org/2000/svg" xmlns:xlink="http://www.w3.org/1999/xlink" x="0px"
	 y="0px" viewBox="0 0 116 116" style="enable-background:new 0 0 116 116;" xml:space="preserve">
<style type="text/css">
	.st0{fill:none;stroke:#DF1955;stroke-width:4;stroke-linecap:round;stroke-linejoin:round;}
</style>
<path class="st0" d="M49.7,18.7L8.8,87c-0.8,1.5-1.3,3.1-1.3,4.8c0,1.7,0.4,3.3,1.3,4.8c0.8,1.5,2,2.7,3.5,3.5
	c1.5,0.9,3.1,1.3,4.8,1.3h81.9c1.7,0,3.3-0.5,4.8-1.3c1.5-0.9,2.7-2.1,3.5-3.5c0.8-1.5,1.3-3.1,1.3-4.8c0-1.7-0.5-3.3-1.3-4.8
	L66.3,18.7c-0.9-1.4-2.1-2.6-3.5-3.4C61.3,14.4,59.7,14,58,14s-3.3,0.4-4.7,1.2C51.8,16.1,50.6,17.2,49.7,18.7L49.7,18.7z"/>
<path class="st0" d="M58,43v30"/>
<path class="st0" d="M58,82.2L58,82.2"/>
</svg>
