<svg width="25" height="25" viewBox="0 0 25 25" fill="none" xmlns="http://www.w3.org/2000/svg">
<path d="M10.4167 14.5833C10.7561 14.9298 11.1613 15.205 11.6085 15.3929C12.0556 15.5808 12.5358 15.6776 13.0208 15.6776C13.5059 15.6776 13.986 15.5808 14.4332 15.3929C14.8804 15.205 15.2855 14.9298 15.625 14.5833L19.7917 10.4167C20.4823 9.72599 20.8703 8.78924 20.8703 7.81249C20.8703 6.83573 20.4823 5.89899 19.7917 5.20832C19.101 4.51765 18.1642 4.12964 17.1875 4.12964C16.2107 4.12964 15.274 4.51765 14.5833 5.20832L14.0625 5.72915" stroke="white" stroke-width="1.5" stroke-linecap="round" stroke-linejoin="round"/>
<path d="M14.5833 10.4167C14.2439 10.0702 13.8387 9.79497 13.3915 9.60707C12.9444 9.41917 12.4642 9.32239 11.9792 9.32239C11.4941 9.32239 11.0139 9.41917 10.5668 9.60707C10.1196 9.79497 9.71444 10.0702 9.37499 10.4167L5.20832 14.5833C4.51765 15.274 4.12964 16.2108 4.12964 17.1875C4.12964 18.1643 4.51765 19.101 5.20832 19.7917C5.89899 20.4823 6.83573 20.8704 7.81249 20.8704C8.78924 20.8704 9.72598 20.4823 10.4167 19.7917L10.9375 19.2708" stroke="white" stroke-width="1.5" stroke-linecap="round" stroke-linejoin="round"/>
</svg>
