<svg width="20" height="20" viewBox="0 0 20 20" fill="none" xmlns="http://www.w3.org/2000/svg">
<path d="M7.50033 3.33337V18.3334M5.00033 3.33337H14.167C14.609 3.33337 15.0329 3.50897 15.3455 3.82153C15.6581 4.13409 15.8337 4.55801 15.8337 5.00004V15C15.8337 15.4421 15.6581 15.866 15.3455 16.1786C15.0329 16.4911 14.609 16.6667 14.167 16.6667H5.00033C4.77931 16.6667 4.56735 16.5789 4.41107 16.4226C4.25479 16.2663 4.16699 16.0544 4.16699 15.8334V4.16671C4.16699 3.94569 4.25479 3.73373 4.41107 3.57745C4.56735 3.42117 4.77931 3.33337 5.00033 3.33337V3.33337Z" stroke="#8E76AB" stroke-width="1.25" stroke-linecap="round" stroke-linejoin="round"/>
<path d="M10.833 6.66663H12.4997" stroke="#8E76AB" stroke-width="1.25" stroke-linecap="round" stroke-linejoin="round"/>
<path d="M10.833 10H12.4997" stroke="#8E76AB" stroke-width="1.25" stroke-linecap="round" stroke-linejoin="round"/>
</svg>
