<?xml version="1.0" encoding="utf-8"?>
<!-- Generator: Adobe Illustrator 26.3.1, SVG Export Plug-In . SVG Version: 6.00 Build 0)  -->
<svg version="1.1" id="레이어_1" xmlns="http://www.w3.org/2000/svg" xmlns:xlink="http://www.w3.org/1999/xlink" x="0px"
	 y="0px" viewBox="0 0 19 20" style="enable-background:new 0 0 19 20;" xml:space="preserve">
<style type="text/css">
	.st0{fill:#8637D5;}
</style>
<path class="st0" d="M1.7,12.5l-1.2,0.4C-0.7,9.1,0.5,5,3.5,2.6c1.7-1.4,3.8-2.1,6-2.1c0.3,0,0.6,0,0.9,0c2,0.2,3.8,1,5.2,2.2V0.7
	h1.3v4.2h-4.2V3.6h2.1c-1.3-1.1-2.8-1.7-4.5-1.9C8.1,1.5,6,2.2,4.3,3.5C1.7,5.7,0.7,9.2,1.7,12.5z"/>
<path class="st0" d="M3.2,18.9H1.9v-4.2h4.2V16H4c2.9,2.6,7.5,2.8,10.6,0.3c2.6-2.1,3.7-5.6,2.7-8.8l1.2-0.4c1.2,3.8,0,7.8-3.1,10.2
	c-3.6,3-8.8,2.8-12.2-0.3V18.9z"/>
</svg>
