<svg width="102" height="102" viewBox="0 0 102 102" fill="none" xmlns="http://www.w3.org/2000/svg">
<path d="M51.0312 101.131C78.6732 101.131 101.16 78.642 101.16 51C101.158 23.357 78.6702 0.868988 51.0292 0.868988C23.3892 0.868988 0.903152 23.357 0.903152 51C0.903152 78.642 23.3902 101.131 51.0312 101.131ZM51.0292 4.86899C76.4632 4.86899 97.1582 25.562 97.1602 51C97.1602 76.437 76.4672 97.131 51.0312 97.131C25.5962 97.131 4.90315 76.437 4.90315 51C4.90315 25.562 25.5952 4.86899 51.0292 4.86899ZM36.5242 46.082L49.0292 35.306V71.058C49.0292 72.162 49.9252 73.058 51.0292 73.058C52.1332 73.058 53.0292 72.162 53.0292 71.058V35.306L65.5362 46.082C66.3732 46.803 67.6372 46.709 68.3572 45.872C69.0772 45.035 68.9842 43.771 68.1472 43.051L51.0292 28.303L33.9132 43.051C33.0762 43.773 32.9822 45.035 33.7042 45.872C34.4242 46.709 35.6872 46.803 36.5242 46.082Z" fill="#8637D5"/>
</svg>
