<svg width="12" height="12" viewBox="0 0 12 12" fill="none" xmlns="http://www.w3.org/2000/svg">
<path d="M9.33333 2.66667H10.8333C11.48 2.66667 12 3.18667 12 3.83333V10.8333C12 11.48 11.48 12 10.8333 12H3.83333C3.18667 12 2.66667 11.48 2.66667 10.8333V9.33333H1.16667C0.52 9.33333 0 8.81333 0 8.16667V1.16667C0 0.52 0.52 0 1.16667 0H8.16667C8.81333 0 9.33333 0.52 9.33333 1.16667V2.66667ZM8 2.66667V1.33333H1.33333V8H2.66667V3.83333C2.66667 3.18667 3.18667 2.66667 3.83333 2.66667H8ZM4 4V10.6667H10.6667V4H4Z" fill="#8E76AB"/>
</svg>
