<svg width="540" height="109" viewBox="0 0 540 109" fill="none" xmlns="http://www.w3.org/2000/svg">
<path d="M35.0234 39.1328H46.7031C46.4688 42.9609 45.4141 46.3594 43.5391 49.3281C41.6901 52.2969 39.099 54.6146 35.7656 56.2812C32.4583 57.9479 28.474 58.7812 23.8125 58.7812C20.1667 58.7812 16.8984 58.1562 14.0078 56.9062C11.1172 55.6302 8.64323 53.8073 6.58594 51.4375C4.55469 49.0677 3.00521 46.2031 1.9375 42.8438C0.869792 39.4844 0.335938 35.7214 0.335938 31.5547V27.6094C0.335938 23.4427 0.882812 19.6797 1.97656 16.3203C3.09635 12.9349 4.6849 10.0573 6.74219 7.6875C8.82552 5.31771 11.3125 3.49479 14.2031 2.21875C17.0938 0.942708 20.3229 0.304688 23.8906 0.304688C28.6302 0.304688 32.6276 1.16406 35.8828 2.88281C39.1641 4.60156 41.7031 6.97135 43.5 9.99219C45.3229 13.013 46.4167 16.4505 46.7812 20.3047H35.0625C34.9323 18.013 34.4766 16.0729 33.6953 14.4844C32.9141 12.8698 31.7292 11.6589 30.1406 10.8516C28.5781 10.0182 26.4948 9.60156 23.8906 9.60156C21.9375 9.60156 20.2318 9.96615 18.7734 10.6953C17.3151 11.4245 16.0911 12.5312 15.1016 14.0156C14.112 15.5 13.3698 17.375 12.875 19.6406C12.4062 21.8802 12.1719 24.5104 12.1719 27.5312V31.5547C12.1719 34.4974 12.3932 37.0885 12.8359 39.3281C13.2786 41.5417 13.9557 43.4167 14.8672 44.9531C15.8047 46.4635 17.0026 47.6094 18.4609 48.3906C19.9453 49.1458 21.7292 49.5234 23.8125 49.5234C26.2604 49.5234 28.2786 49.1328 29.8672 48.3516C31.4557 47.5703 32.6667 46.4115 33.5 44.875C34.3594 43.3385 34.8672 41.4245 35.0234 39.1328ZM101.117 28.2344V30.9297C101.117 35.2526 100.531 39.1328 99.3594 42.5703C98.1875 46.0078 96.5339 48.9375 94.3984 51.3594C92.263 53.7552 89.7109 55.5911 86.7422 56.8672C83.7995 58.1432 80.5312 58.7812 76.9375 58.7812C73.3698 58.7812 70.1016 58.1432 67.1328 56.8672C64.1901 55.5911 61.638 53.7552 59.4766 51.3594C57.3151 48.9375 55.6354 46.0078 54.4375 42.5703C53.2656 39.1328 52.6797 35.2526 52.6797 30.9297V28.2344C52.6797 23.8854 53.2656 20.0052 54.4375 16.5938C55.6094 13.1562 57.263 10.2266 59.3984 7.80469C61.5599 5.38281 64.112 3.53385 67.0547 2.25781C70.0234 0.981771 73.2917 0.34375 76.8594 0.34375C80.4531 0.34375 83.7214 0.981771 86.6641 2.25781C89.6328 3.53385 92.1849 5.38281 94.3203 7.80469C96.4818 10.2266 98.1484 13.1562 99.3203 16.5938C100.518 20.0052 101.117 23.8854 101.117 28.2344ZM89.2812 30.9297V28.1562C89.2812 25.1354 89.0078 22.4792 88.4609 20.1875C87.9141 17.8958 87.1068 15.9688 86.0391 14.4062C84.9714 12.8438 83.6693 11.6719 82.1328 10.8906C80.5964 10.0833 78.8385 9.67969 76.8594 9.67969C74.8802 9.67969 73.1224 10.0833 71.5859 10.8906C70.0755 11.6719 68.7865 12.8438 67.7188 14.4062C66.6771 15.9688 65.8828 17.8958 65.3359 20.1875C64.7891 22.4792 64.5156 25.1354 64.5156 28.1562V30.9297C64.5156 33.9245 64.7891 36.5807 65.3359 38.8984C65.8828 41.1901 66.6901 43.1302 67.7578 44.7188C68.8255 46.2812 70.1276 47.4661 71.6641 48.2734C73.2005 49.0807 74.9583 49.4844 76.9375 49.4844C78.9167 49.4844 80.6745 49.0807 82.2109 48.2734C83.7474 47.4661 85.0365 46.2812 86.0781 44.7188C87.1198 43.1302 87.9141 41.1901 88.4609 38.8984C89.0078 36.5807 89.2812 33.9245 89.2812 30.9297ZM114.906 1.125H124.828L139.438 42.8828L154.047 1.125H163.969L143.422 58H135.453L114.906 1.125ZM109.555 1.125H119.438L121.234 41.8281V58H109.555V1.125ZM159.438 1.125H169.359V58H157.641V41.8281L159.438 1.125ZM192.094 1.125V58H180.414V1.125H192.094ZM249.359 1.125V58H237.641L214.789 19.875V58H203.07V1.125H214.789L237.68 39.2891V1.125H249.359ZM304.633 28.2734V50.8125C303.747 51.8802 302.38 53.0391 300.531 54.2891C298.682 55.513 296.299 56.5677 293.383 57.4531C290.466 58.3385 286.938 58.7812 282.797 58.7812C279.125 58.7812 275.779 58.1823 272.758 56.9844C269.737 55.7604 267.133 53.9766 264.945 51.6328C262.784 49.2891 261.117 46.4245 259.945 43.0391C258.773 39.6276 258.188 35.7344 258.188 31.3594V27.8047C258.188 23.4297 258.747 19.5365 259.867 16.125C261.013 12.7135 262.641 9.83594 264.75 7.49219C266.859 5.14844 269.372 3.36458 272.289 2.14062C275.206 0.916667 278.448 0.304688 282.016 0.304688C286.964 0.304688 291.026 1.11198 294.203 2.72656C297.38 4.3151 299.802 6.52865 301.469 9.36719C303.161 12.1797 304.203 15.4089 304.594 19.0547H293.227C292.94 17.1276 292.393 15.4479 291.586 14.0156C290.779 12.5833 289.62 11.4635 288.109 10.6562C286.625 9.84896 284.698 9.44531 282.328 9.44531C280.375 9.44531 278.63 9.84896 277.094 10.6562C275.583 11.4375 274.307 12.5964 273.266 14.1328C272.224 15.6693 271.43 17.5703 270.883 19.8359C270.336 22.1016 270.062 24.7318 270.062 27.7266V31.3594C270.062 34.3281 270.349 36.9583 270.922 39.25C271.495 41.5156 272.341 43.4297 273.461 44.9922C274.607 46.5286 276.013 47.6875 277.68 48.4688C279.346 49.25 281.286 49.6406 283.5 49.6406C285.349 49.6406 286.885 49.4844 288.109 49.1719C289.359 48.8594 290.362 48.4818 291.117 48.0391C291.898 47.5703 292.497 47.1276 292.914 46.7109V36.6328H282.211V28.2734H304.633ZM363.617 43.1172C363.617 42.1016 363.461 41.1901 363.148 40.3828C362.862 39.5495 362.315 38.7943 361.508 38.1172C360.701 37.4141 359.568 36.724 358.109 36.0469C356.651 35.3698 354.763 34.6667 352.445 33.9375C349.867 33.1042 347.419 32.1667 345.102 31.125C342.81 30.0833 340.779 28.8724 339.008 27.4922C337.263 26.0859 335.883 24.4583 334.867 22.6094C333.878 20.7604 333.383 18.612 333.383 16.1641C333.383 13.7943 333.904 11.6458 334.945 9.71875C335.987 7.76562 337.445 6.09896 339.32 4.71875C341.195 3.3125 343.409 2.23177 345.961 1.47656C348.539 0.721354 351.365 0.34375 354.438 0.34375C358.63 0.34375 362.289 1.09896 365.414 2.60938C368.539 4.11979 370.961 6.1901 372.68 8.82031C374.424 11.4505 375.297 14.4583 375.297 17.8438H363.656C363.656 16.1771 363.305 14.7188 362.602 13.4688C361.924 12.1927 360.883 11.1901 359.477 10.4609C358.096 9.73177 356.352 9.36719 354.242 9.36719C352.211 9.36719 350.518 9.67969 349.164 10.3047C347.81 10.9036 346.794 11.724 346.117 12.7656C345.44 13.7812 345.102 14.9271 345.102 16.2031C345.102 17.1667 345.336 18.0391 345.805 18.8203C346.299 19.6016 347.029 20.3307 347.992 21.0078C348.956 21.6849 350.141 22.3229 351.547 22.9219C352.953 23.5208 354.581 24.1068 356.43 24.6797C359.529 25.6172 362.25 26.6719 364.594 27.8438C366.964 29.0156 368.943 30.3307 370.531 31.7891C372.12 33.2474 373.318 34.901 374.125 36.75C374.932 38.599 375.336 40.6953 375.336 43.0391C375.336 45.513 374.854 47.7266 373.891 49.6797C372.927 51.6328 371.534 53.2865 369.711 54.6406C367.888 55.9948 365.714 57.0234 363.188 57.7266C360.661 58.4297 357.836 58.7812 354.711 58.7812C351.898 58.7812 349.125 58.4167 346.391 57.6875C343.656 56.9323 341.169 55.7995 338.93 54.2891C336.716 52.7786 334.945 50.8516 333.617 48.5078C332.289 46.1641 331.625 43.3906 331.625 40.1875H343.383C343.383 41.9583 343.656 43.4557 344.203 44.6797C344.75 45.9036 345.518 46.8932 346.508 47.6484C347.523 48.4036 348.721 48.9505 350.102 49.2891C351.508 49.6276 353.044 49.7969 354.711 49.7969C356.742 49.7969 358.409 49.5104 359.711 48.9375C361.039 48.3646 362.016 47.5703 362.641 46.5547C363.292 45.5391 363.617 44.3932 363.617 43.1172ZM430.023 28.2344V30.9297C430.023 35.2526 429.438 39.1328 428.266 42.5703C427.094 46.0078 425.44 48.9375 423.305 51.3594C421.169 53.7552 418.617 55.5911 415.648 56.8672C412.706 58.1432 409.438 58.7812 405.844 58.7812C402.276 58.7812 399.008 58.1432 396.039 56.8672C393.096 55.5911 390.544 53.7552 388.383 51.3594C386.221 48.9375 384.542 46.0078 383.344 42.5703C382.172 39.1328 381.586 35.2526 381.586 30.9297V28.2344C381.586 23.8854 382.172 20.0052 383.344 16.5938C384.516 13.1562 386.169 10.2266 388.305 7.80469C390.466 5.38281 393.018 3.53385 395.961 2.25781C398.93 0.981771 402.198 0.34375 405.766 0.34375C409.359 0.34375 412.628 0.981771 415.57 2.25781C418.539 3.53385 421.091 5.38281 423.227 7.80469C425.388 10.2266 427.055 13.1562 428.227 16.5938C429.424 20.0052 430.023 23.8854 430.023 28.2344ZM418.188 30.9297V28.1562C418.188 25.1354 417.914 22.4792 417.367 20.1875C416.82 17.8958 416.013 15.9688 414.945 14.4062C413.878 12.8438 412.576 11.6719 411.039 10.8906C409.503 10.0833 407.745 9.67969 405.766 9.67969C403.786 9.67969 402.029 10.0833 400.492 10.8906C398.982 11.6719 397.693 12.8438 396.625 14.4062C395.583 15.9688 394.789 17.8958 394.242 20.1875C393.695 22.4792 393.422 25.1354 393.422 28.1562V30.9297C393.422 33.9245 393.695 36.5807 394.242 38.8984C394.789 41.1901 395.596 43.1302 396.664 44.7188C397.732 46.2812 399.034 47.4661 400.57 48.2734C402.107 49.0807 403.865 49.4844 405.844 49.4844C407.823 49.4844 409.581 49.0807 411.117 48.2734C412.654 47.4661 413.943 46.2812 414.984 44.7188C416.026 43.1302 416.82 41.1901 417.367 38.8984C417.914 36.5807 418.188 33.9245 418.188 30.9297ZM485.18 28.2344V30.9297C485.18 35.2526 484.594 39.1328 483.422 42.5703C482.25 46.0078 480.596 48.9375 478.461 51.3594C476.326 53.7552 473.773 55.5911 470.805 56.8672C467.862 58.1432 464.594 58.7812 461 58.7812C457.432 58.7812 454.164 58.1432 451.195 56.8672C448.253 55.5911 445.701 53.7552 443.539 51.3594C441.378 48.9375 439.698 46.0078 438.5 42.5703C437.328 39.1328 436.742 35.2526 436.742 30.9297V28.2344C436.742 23.8854 437.328 20.0052 438.5 16.5938C439.672 13.1562 441.326 10.2266 443.461 7.80469C445.622 5.38281 448.174 3.53385 451.117 2.25781C454.086 0.981771 457.354 0.34375 460.922 0.34375C464.516 0.34375 467.784 0.981771 470.727 2.25781C473.695 3.53385 476.247 5.38281 478.383 7.80469C480.544 10.2266 482.211 13.1562 483.383 16.5938C484.581 20.0052 485.18 23.8854 485.18 28.2344ZM473.344 30.9297V28.1562C473.344 25.1354 473.07 22.4792 472.523 20.1875C471.977 17.8958 471.169 15.9688 470.102 14.4062C469.034 12.8438 467.732 11.6719 466.195 10.8906C464.659 10.0833 462.901 9.67969 460.922 9.67969C458.943 9.67969 457.185 10.0833 455.648 10.8906C454.138 11.6719 452.849 12.8438 451.781 14.4062C450.74 15.9688 449.945 17.8958 449.398 20.1875C448.852 22.4792 448.578 25.1354 448.578 28.1562V30.9297C448.578 33.9245 448.852 36.5807 449.398 38.8984C449.945 41.1901 450.753 43.1302 451.82 44.7188C452.888 46.2812 454.19 47.4661 455.727 48.2734C457.263 49.0807 459.021 49.4844 461 49.4844C462.979 49.4844 464.737 49.0807 466.273 48.2734C467.81 47.4661 469.099 46.2812 470.141 44.7188C471.182 43.1302 471.977 41.1901 472.523 38.8984C473.07 36.5807 473.344 33.9245 473.344 30.9297ZM539.906 1.125V58H528.188L505.336 19.875V58H493.617V1.125H505.336L528.227 39.2891V1.125H539.906ZM180.396 100.768V100.453C180.396 99.3867 180.551 98.3978 180.861 97.4863C181.171 96.5658 181.618 95.7682 182.201 95.0938C182.785 94.4102 183.491 93.8815 184.32 93.5078C185.15 93.125 186.079 92.9336 187.109 92.9336C188.148 92.9336 189.083 93.125 189.912 93.5078C190.751 93.8815 191.462 94.4102 192.045 95.0938C192.637 95.7682 193.089 96.5658 193.398 97.4863C193.708 98.3978 193.863 99.3867 193.863 100.453V100.768C193.863 101.834 193.708 102.823 193.398 103.734C193.089 104.646 192.637 105.443 192.045 106.127C191.462 106.801 190.755 107.33 189.926 107.713C189.105 108.087 188.176 108.273 187.137 108.273C186.098 108.273 185.163 108.087 184.334 107.713C183.505 107.33 182.794 106.801 182.201 106.127C181.618 105.443 181.171 104.646 180.861 103.734C180.551 102.823 180.396 101.834 180.396 100.768ZM182.926 100.453V100.768C182.926 101.506 183.012 102.203 183.186 102.859C183.359 103.507 183.618 104.081 183.965 104.582C184.32 105.083 184.762 105.48 185.291 105.771C185.82 106.054 186.435 106.195 187.137 106.195C187.829 106.195 188.436 106.054 188.955 105.771C189.484 105.48 189.921 105.083 190.268 104.582C190.614 104.081 190.874 103.507 191.047 102.859C191.229 102.203 191.32 101.506 191.32 100.768V100.453C191.32 99.724 191.229 99.0358 191.047 98.3887C190.874 97.7324 190.609 97.1536 190.254 96.6523C189.908 96.1419 189.47 95.7409 188.941 95.4492C188.422 95.1576 187.811 95.0117 187.109 95.0117C186.417 95.0117 185.806 95.1576 185.277 95.4492C184.758 95.7409 184.32 96.1419 183.965 96.6523C183.618 97.1536 183.359 97.7324 183.186 98.3887C183.012 99.0358 182.926 99.724 182.926 100.453ZM199.564 96.3652V108H197.035V93.207H199.428L199.564 96.3652ZM198.963 100.043L197.91 100.002C197.919 98.9902 198.07 98.056 198.361 97.1992C198.653 96.3333 199.063 95.5814 199.592 94.9434C200.12 94.3053 200.749 93.8132 201.479 93.4668C202.217 93.1113 203.033 92.9336 203.926 92.9336C204.655 92.9336 205.311 93.0339 205.895 93.2344C206.478 93.4258 206.975 93.7357 207.385 94.1641C207.804 94.5924 208.123 95.1484 208.342 95.832C208.561 96.5065 208.67 97.3314 208.67 98.3066V108H206.127V98.2793C206.127 97.5046 206.013 96.8848 205.785 96.4199C205.557 95.946 205.225 95.6042 204.787 95.3945C204.35 95.1758 203.812 95.0664 203.174 95.0664C202.545 95.0664 201.971 95.1986 201.451 95.4629C200.941 95.7272 200.499 96.0918 200.125 96.5566C199.76 97.0215 199.473 97.5547 199.264 98.1562C199.063 98.7487 198.963 99.3776 198.963 100.043ZM226.936 98.6895H221.891L221.863 96.5703H226.443C227.2 96.5703 227.861 96.4427 228.426 96.1875C228.991 95.9323 229.428 95.5677 229.738 95.0938C230.057 94.6107 230.217 94.0365 230.217 93.3711C230.217 92.6419 230.076 92.0495 229.793 91.5938C229.52 91.1289 229.096 90.7917 228.521 90.582C227.956 90.3633 227.236 90.2539 226.361 90.2539H222.479V108H219.84V88.0938H226.361C227.382 88.0938 228.294 88.1986 229.096 88.4082C229.898 88.6087 230.577 88.9277 231.133 89.3652C231.698 89.7936 232.126 90.3405 232.418 91.0059C232.71 91.6712 232.855 92.4688 232.855 93.3984C232.855 94.2188 232.646 94.9616 232.227 95.627C231.807 96.2832 231.224 96.821 230.477 97.2402C229.738 97.6595 228.872 97.9284 227.879 98.0469L226.936 98.6895ZM226.812 108H220.852L222.342 105.854H226.812C227.651 105.854 228.362 105.708 228.945 105.416C229.538 105.124 229.989 104.714 230.299 104.186C230.609 103.648 230.764 103.014 230.764 102.285C230.764 101.547 230.632 100.909 230.367 100.371C230.103 99.8333 229.688 99.4186 229.123 99.127C228.558 98.8353 227.829 98.6895 226.936 98.6895H223.176L223.203 96.5703H228.344L228.904 97.3359C229.861 97.418 230.673 97.6914 231.338 98.1562C232.003 98.612 232.509 99.1953 232.855 99.9062C233.211 100.617 233.389 101.401 233.389 102.258C233.389 103.497 233.115 104.546 232.568 105.402C232.031 106.25 231.27 106.897 230.285 107.344C229.301 107.781 228.143 108 226.812 108ZM252.611 97.418V98.6758C252.611 100.171 252.424 101.51 252.051 102.695C251.677 103.88 251.139 104.887 250.438 105.717C249.736 106.546 248.893 107.18 247.908 107.617C246.933 108.055 245.839 108.273 244.627 108.273C243.451 108.273 242.371 108.055 241.387 107.617C240.411 107.18 239.564 106.546 238.844 105.717C238.133 104.887 237.581 103.88 237.189 102.695C236.798 101.51 236.602 100.171 236.602 98.6758V97.418C236.602 95.9232 236.793 94.5879 237.176 93.4121C237.568 92.2272 238.119 91.2201 238.83 90.3906C239.541 89.5521 240.384 88.9141 241.359 88.4766C242.344 88.0391 243.424 87.8203 244.6 87.8203C245.812 87.8203 246.906 88.0391 247.881 88.4766C248.865 88.9141 249.708 89.5521 250.41 90.3906C251.121 91.2201 251.663 92.2272 252.037 93.4121C252.42 94.5879 252.611 95.9232 252.611 97.418ZM250 98.6758V97.3906C250 96.2057 249.877 95.1576 249.631 94.2461C249.394 93.3346 249.043 92.569 248.578 91.9492C248.113 91.3294 247.544 90.86 246.869 90.541C246.204 90.222 245.447 90.0625 244.6 90.0625C243.779 90.0625 243.036 90.222 242.371 90.541C241.715 90.86 241.15 91.3294 240.676 91.9492C240.211 92.569 239.851 93.3346 239.596 94.2461C239.34 95.1576 239.213 96.2057 239.213 97.3906V98.6758C239.213 99.8698 239.34 100.927 239.596 101.848C239.851 102.759 240.215 103.529 240.689 104.158C241.173 104.778 241.742 105.247 242.398 105.566C243.064 105.885 243.807 106.045 244.627 106.045C245.484 106.045 246.245 105.885 246.91 105.566C247.576 105.247 248.136 104.778 248.592 104.158C249.057 103.529 249.408 102.759 249.645 101.848C249.882 100.927 250 99.8698 250 98.6758ZM267.172 102.969C267.172 102.504 267.099 102.094 266.953 101.738C266.816 101.374 266.57 101.046 266.215 100.754C265.868 100.462 265.385 100.184 264.766 99.9199C264.155 99.6556 263.38 99.3867 262.441 99.1133C261.457 98.8216 260.568 98.498 259.775 98.1426C258.982 97.778 258.303 97.3633 257.738 96.8984C257.173 96.4336 256.74 95.9004 256.439 95.2988C256.139 94.6973 255.988 94.0091 255.988 93.2344C255.988 92.4596 256.148 91.7441 256.467 91.0879C256.786 90.4316 257.242 89.862 257.834 89.3789C258.436 88.8867 259.151 88.5039 259.98 88.2305C260.81 87.957 261.735 87.8203 262.756 87.8203C264.251 87.8203 265.518 88.1074 266.557 88.6816C267.605 89.2467 268.402 89.9896 268.949 90.9102C269.496 91.8216 269.77 92.7969 269.77 93.8359H267.145C267.145 93.0885 266.985 92.4277 266.666 91.8535C266.347 91.2702 265.864 90.8145 265.217 90.4863C264.57 90.1491 263.749 89.9805 262.756 89.9805C261.817 89.9805 261.042 90.1217 260.432 90.4043C259.821 90.6868 259.365 91.0697 259.064 91.5527C258.773 92.0358 258.627 92.5872 258.627 93.207C258.627 93.6263 258.714 94.0091 258.887 94.3555C259.069 94.6927 259.347 95.0072 259.721 95.2988C260.104 95.5905 260.587 95.8594 261.17 96.1055C261.762 96.3516 262.469 96.5885 263.289 96.8164C264.419 97.1354 265.395 97.4909 266.215 97.8828C267.035 98.2747 267.71 98.7168 268.238 99.209C268.776 99.6921 269.173 100.243 269.428 100.863C269.692 101.474 269.824 102.167 269.824 102.941C269.824 103.753 269.66 104.486 269.332 105.143C269.004 105.799 268.535 106.359 267.924 106.824C267.313 107.289 266.579 107.649 265.723 107.904C264.875 108.15 263.927 108.273 262.879 108.273C261.958 108.273 261.051 108.146 260.158 107.891C259.274 107.635 258.467 107.253 257.738 106.742C257.018 106.232 256.439 105.603 256.002 104.855C255.574 104.099 255.359 103.224 255.359 102.23H257.984C257.984 102.914 258.117 103.502 258.381 103.994C258.645 104.477 259.005 104.878 259.461 105.197C259.926 105.516 260.45 105.753 261.033 105.908C261.626 106.054 262.241 106.127 262.879 106.127C263.799 106.127 264.579 105.999 265.217 105.744C265.855 105.489 266.338 105.124 266.666 104.65C267.003 104.176 267.172 103.616 267.172 102.969ZM280.557 89.8574L273.967 108H271.273L278.861 88.0938H280.598L280.557 89.8574ZM286.08 108L279.477 89.8574L279.436 88.0938H281.172L288.787 108H286.08ZM285.738 100.631V102.791H274.555V100.631H285.738ZM306 98.0879V105.375C305.754 105.74 305.362 106.15 304.824 106.605C304.286 107.052 303.544 107.444 302.596 107.781C301.657 108.109 300.445 108.273 298.959 108.273C297.747 108.273 296.63 108.064 295.609 107.645C294.598 107.216 293.718 106.596 292.971 105.785C292.232 104.965 291.658 103.971 291.248 102.805C290.847 101.629 290.646 100.298 290.646 98.8125V97.2676C290.646 95.7819 290.82 94.4557 291.166 93.2891C291.521 92.1224 292.041 91.1335 292.725 90.3223C293.408 89.502 294.247 88.8822 295.24 88.4629C296.234 88.0345 297.373 87.8203 298.658 87.8203C300.18 87.8203 301.452 88.0846 302.473 88.6133C303.503 89.1328 304.305 89.8529 304.879 90.7734C305.462 91.694 305.836 92.7422 306 93.918H303.361C303.243 93.1979 303.006 92.5417 302.65 91.9492C302.304 91.3568 301.807 90.8828 301.16 90.5273C300.513 90.1628 299.679 89.9805 298.658 89.9805C297.738 89.9805 296.94 90.1491 296.266 90.4863C295.591 90.8236 295.035 91.3066 294.598 91.9355C294.16 92.5645 293.832 93.3255 293.613 94.2188C293.404 95.112 293.299 96.1191 293.299 97.2402V98.8125C293.299 99.9609 293.431 100.986 293.695 101.889C293.969 102.791 294.356 103.561 294.857 104.199C295.359 104.828 295.956 105.307 296.648 105.635C297.35 105.963 298.125 106.127 298.973 106.127C299.911 106.127 300.673 106.049 301.256 105.895C301.839 105.73 302.295 105.539 302.623 105.32C302.951 105.092 303.202 104.878 303.375 104.678V100.221H298.768V98.0879H306ZM325.701 97.418V98.6758C325.701 100.171 325.514 101.51 325.141 102.695C324.767 103.88 324.229 104.887 323.527 105.717C322.826 106.546 321.982 107.18 320.998 107.617C320.023 108.055 318.929 108.273 317.717 108.273C316.541 108.273 315.461 108.055 314.477 107.617C313.501 107.18 312.654 106.546 311.934 105.717C311.223 104.887 310.671 103.88 310.279 102.695C309.887 101.51 309.691 100.171 309.691 98.6758V97.418C309.691 95.9232 309.883 94.5879 310.266 93.4121C310.658 92.2272 311.209 91.2201 311.92 90.3906C312.631 89.5521 313.474 88.9141 314.449 88.4766C315.434 88.0391 316.514 87.8203 317.689 87.8203C318.902 87.8203 319.995 88.0391 320.971 88.4766C321.955 88.9141 322.798 89.5521 323.5 90.3906C324.211 91.2201 324.753 92.2272 325.127 93.4121C325.51 94.5879 325.701 95.9232 325.701 97.418ZM323.09 98.6758V97.3906C323.09 96.2057 322.967 95.1576 322.721 94.2461C322.484 93.3346 322.133 92.569 321.668 91.9492C321.203 91.3294 320.633 90.86 319.959 90.541C319.294 90.222 318.537 90.0625 317.689 90.0625C316.869 90.0625 316.126 90.222 315.461 90.541C314.805 90.86 314.24 91.3294 313.766 91.9492C313.301 92.569 312.941 93.3346 312.686 94.2461C312.43 95.1576 312.303 96.2057 312.303 97.3906V98.6758C312.303 99.8698 312.43 100.927 312.686 101.848C312.941 102.759 313.305 103.529 313.779 104.158C314.262 104.778 314.832 105.247 315.488 105.566C316.154 105.885 316.896 106.045 317.717 106.045C318.574 106.045 319.335 105.885 320 105.566C320.665 105.247 321.226 104.778 321.682 104.158C322.146 103.529 322.497 102.759 322.734 101.848C322.971 100.927 323.09 99.8698 323.09 98.6758ZM329.652 88.0938H336.242C337.737 88.0938 338.999 88.3216 340.029 88.7773C341.068 89.2331 341.857 89.9076 342.395 90.8008C342.941 91.6849 343.215 92.7741 343.215 94.0684C343.215 94.9798 343.028 95.8138 342.654 96.5703C342.29 97.3177 341.761 97.9557 341.068 98.4844C340.385 99.0039 339.564 99.3913 338.607 99.6465L337.869 99.9336H331.676L331.648 97.7871H336.324C337.272 97.7871 338.061 97.623 338.689 97.2949C339.318 96.9577 339.792 96.5065 340.111 95.9414C340.43 95.3763 340.59 94.752 340.59 94.0684C340.59 93.3027 340.439 92.6328 340.139 92.0586C339.838 91.4844 339.364 91.0423 338.717 90.7324C338.079 90.4134 337.254 90.2539 336.242 90.2539H332.291V108H329.652V88.0938ZM341.287 108L336.447 98.9766L339.195 98.9629L344.104 107.836V108H341.287ZM354.275 89.8574L347.686 108H344.992L352.58 88.0938H354.316L354.275 89.8574ZM359.799 108L353.195 89.8574L353.154 88.0938H354.891L362.506 108H359.799ZM359.457 100.631V102.791H348.273V100.631H359.457Z" fill="white"/>
</svg>
