<?xml version="1.0" encoding="utf-8"?>
<!-- Generator: Adobe Illustrator 26.2.1, SVG Export Plug-In . SVG Version: 6.00 Build 0)  -->
<svg version="1.1" id="레이어_1" xmlns="http://www.w3.org/2000/svg" xmlns:xlink="http://www.w3.org/1999/xlink" x="0px"
	 y="0px" viewBox="0 0 5.7 22" style="enable-background:new 0 0 5.7 22;" xml:space="preserve">
<style type="text/css">
	.st0{fill:none;stroke:#8637D5;stroke-linecap:round;stroke-linejoin:round;}
</style>
<path class="st0" d="M2.8,2.8c0.5,0,1,0.2,1.3,0.5c0.3,0.3,0.5,0.8,0.5,1.3v2.8c0,0.5-0.2,1-0.5,1.3C3.8,9,3.3,9.2,2.8,9.2
	S1.9,9,1.5,8.6C1.2,8.3,1,7.8,1,7.3V4.6c0-0.5,0.2-1,0.5-1.3S2.3,2.8,2.8,2.8L2.8,2.8z"/>
<path class="st0" d="M2.8,16.5c1,0,1.8-0.8,1.8-1.8s-0.8-1.8-1.8-1.8S1,13.7,1,14.7S1.8,16.5,2.8,16.5z"/>
<path class="st0" d="M4.7,14.7v2.7c0,0.5-0.2,1-0.5,1.3c-0.3,0.3-0.8,0.5-1.3,0.5H1.5"/>
</svg>
