<?xml version="1.0" encoding="utf-8"?>
<!-- Generator: Adobe Illustrator 26.2.1, SVG Export Plug-In . SVG Version: 6.00 Build 0)  -->
<svg version="1.1" id="레이어_1" xmlns="http://www.w3.org/2000/svg" xmlns:xlink="http://www.w3.org/1999/xlink" x="0px"
	 y="0px" viewBox="0 0 5.8 22" style="enable-background:new 0 0 5.8 22;" xml:space="preserve">
<style type="text/css">
	.st0{fill:#8637D5;}
	.st1{fill:none;stroke:#8637D5;stroke-linecap:round;stroke-linejoin:round;}
</style>
<path class="st0" d="M0.5,9.4c0,0.3,0.2,0.5,0.5,0.5c0.3,0,0.5-0.2,0.5-0.5H0.5z M4.2,9.4c0,0.3,0.2,0.5,0.5,0.5
	c0.3,0,0.5-0.2,0.5-0.5H4.2z M4.7,7.2c0.3,0,0.5-0.2,0.5-0.5c0-0.3-0.2-0.5-0.5-0.5V7.2z M1,6.2c-0.3,0-0.5,0.2-0.5,0.5
	c0,0.3,0.2,0.5,0.5,0.5V6.2z M1.5,9.4V4.8h-1v4.6H1.5z M1.5,4.8c0-0.6,0.1-0.9,0.3-1c0.2-0.2,0.5-0.3,1-0.3v-1
	c-0.7,0-1.3,0.2-1.7,0.6c-0.4,0.4-0.6,1-0.6,1.7H1.5z M2.8,3.5c0.6,0,0.9,0.1,1,0.3C4,4,4.2,4.3,4.2,4.8h1c0-0.7-0.2-1.3-0.6-1.7
	s-1-0.6-1.7-0.6V3.5z M4.2,4.8v4.6h1V4.8H4.2z M4.7,6.2H1v1h3.7V6.2z"/>
<path class="st1" d="M4.7,19.5H1l3.7-6.4H1"/>
</svg>
